/* XPM */
static char *s76SVDAMGeq_png[] = {
/* columns rows colors chars-per-pixel */
"32 32 17 1 ",
"  c None",
". c #222034",
"X c #D9A066",
"o c #FBF236",
"O c #524B24",
"+ c #323C39",
"@ c #9BADB7",
"# c #847E87",
"$ c #696A6A",
"% c #595652",
"& c #8F974A",
"* c #30362E",
"= c #3D8A55",
"- c #F8FF00",
"; c #FCFF8E",
": c #DCE20A",
"> c #ACB100",
/* pixels */
"                                ",
"                                ",
"                                ",
"             ....               ",
"           ..oooo..             ",
"          .o;;;;;;o.            ",
"         .o;;;;;;;;o.           ",
"         .oo;;;;;;oo.           ",
"         .oooooooooo.           ",
"         .oooooooooo.           ",
"         .oooooooooo.           ",
"         .>oooooooo>.           ",
"         .>oooooooo>.           ",
"         .oo......oo.           ",
"        .;o..o;;o..o;.          ",
"       .ooo.>....>.ooo.         ",
"       .>o..o>>>>o..o>.         ",
"       .>>..oooooo..>>.         ",
"       .>.o.oooooo.o.>.         ",
"        ..>.>oooo>.>..          ",
"          .>......>.            ",
"          .oo>>>>oo.            ",
"          .o>%..%>o.            ",
"           ...  ...             ",
"                                ",
"                                ",
"                                ",
"                                ",
"                                ",
"                                ",
"                                ",
"                                "
};
