/* XPM */
static char *s768QJZB9o9_png[] = {
/* columns rows colors chars-per-pixel */
"32 32 18 1 ",
"  c None",
". c black",
"X c #222034",
"o c #D9A066",
"O c #FBF236",
"+ c #524B24",
"@ c #323C39",
"# c #9BADB7",
"$ c #847E87",
"% c #696A6A",
"& c #595652",
"* c #8F974A",
"= c #30362E",
"- c #3D8A55",
"; c #F8FF00",
": c #FCFF8E",
"> c #DCE20A",
", c #ACB100",
/* pixels */
"                                ",
"                                ",
"                                ",
"                                ",
"           XXXXXXXX             ",
"          X&OO::::OX            ",
"          X,OOO::::OX           ",
"          X&,,,OOOO:X           ",
"          XXXX&,OOOOOX          ",
"          XX@%X&,OOOOX          ",
"          X@$$%=XOOOOX          ",
"          X@$%%@XOOOOX          ",
"          XX@@@@XOOOOX          ",
"         XX$XX@=XOOO,X          ",
"         X$$$XX&OOO&XX          ",
"          X$$&OOOOOXX           ",
"           X&OOOOOOXXX          ",
"           XOOO::OOX:X          ",
"          XOOOOO:XOXOX          ",
"          X,OOXOOXOXOX          ",
"          X,OOX,OX,X,X          ",
"           X,OX,,X&XX           ",
"            X,OXX&X             ",
"             X,,,,X             ",
"              XXXX              ",
"                                ",
"                                ",
"                                ",
"                                ",
"                                ",
"                                ",
"                                "
};
