/* XPM */
static char *s76aEnNxo84_png[] = {
/* columns rows colors chars-per-pixel */
"32 32 17 1 ",
"  c None",
". c #222034",
"X c #D9A066",
"o c #FBF236",
"O c #524B24",
"+ c #323C39",
"@ c #9BADB7",
"# c #847E87",
"$ c #696A6A",
"% c #595652",
"& c #8F974A",
"* c #30362E",
"= c #3D8A55",
"- c #F8FF00",
"; c #FCFF8E",
": c #DCE20A",
"> c #ACB100",
/* pixels */
"                                ",
"                                ",
"                                ",
"                                ",
"             ........           ",
"            .o;;;;oo%.          ",
"           .o;;;;ooo>.          ",
"           .;oooo>>>%.          ",
"          .ooooo>%....          ",
"          .oooo>%.$+..          ",
"          .oooo.*$##+.          ",
"          .oooo.+$$#+.          ",
"          .oooo.++++..          ",
"          .>ooo.*+..#..         ",
"          ..%ooo%..###.         ",
"           ..ooooo%##.          ",
"          ...oooooo%.           ",
"          .;.oo;;ooo.           ",
"          .o.o.;ooooo.          ",
"          .o.o.oo.oo>.          ",
"          .>.>.o>.oo>.          ",
"           ..%.>>.o>.           ",
"             .%..o>.            ",
"             .>>>>.             ",
"              ....              ",
"                                ",
"                                ",
"                                ",
"                                ",
"                                ",
"                                ",
"                                "
};
