/* XPM */
static char * 1_xpm[] = {
"16 22 15 1",
" 	c None",
".	c #282828",
"+	c #78B820",
"@	c #509010",
"#	c #F87800",
"$	c #E860B0",
"%	c #F0A068",
"&	c #B86820",
"*	c #F8F8F8",
"=	c #389068",
"-	c #40D870",
";	c #885828",
">	c #F0D840",
",	c #E09050",
"'	c #C01820",
"       ....     ",
"     ..++@@.    ",
"    .@+++@##..  ",
"  ...+++@@##.$. ",
" .+@.@@@###.$$$.",
".++@@@.##..$$$$.",
".+@@@.%..$$$$.. ",
".+@@..%%.$...&. ",
" .@...&%.$.*.%. ",
"  . ..&&.$.*.%%.",
"    .$.&&.%&%&. ",
"     ...&&&&..%.",
"     .==....=.&.",
"     .-=..==-=. ",
"     .-.;;.-=.. ",
"    .>..;;.=.>. ",
"    .=>.,,,.>=. ",
"     .=.,,,.=.  ",
"      ..,,...   ",
"      .....'.   ",
"      .''##.    ",
"       ....     "};
