/* XPM */
static char * a1_xpm[] = {
"18 15 32 1",
" 	c None",
".	c #000007",
"+	c #000000",
"@	c #EEE50D",
"#	c #FFFF0C",
"$	c #FDEF0A",
"%	c #FFFF00",
"&	c #FFFF01",
"*	c #FFFF06",
"=	c #FFFF05",
"-	c #FFD40B",
";	c #292627",
">	c #FDAF0B",
",	c #FCB30A",
"'	c #3053AD",
")	c #4D5445",
"!	c #FEB70A",
"~	c #FEB40B",
"{	c #FEB80C",
"]	c #FEB70C",
"^	c #40656B",
"/	c #FEB70B",
"(	c #FEB60C",
"_	c #FEB50B",
":	c #FEB60B",
"<	c #FFD20D",
"[	c #FFDC0B",
"}	c #FFE20A",
"|	c #FFD800",
"1	c #FFC20B",
"2	c #FFF500",
"3	c #FFFF02",
"       ....+      ",
"    ..+@###@+     ",
"   .$+@%&*=##+    ",
"  .-@@##---###+   ",
"  ;@@#-->,,-###+  ",
" ')@#-!,~!!,-##.  ",
" ''-#--,{]]],-##+ ",
"  ^-#--/((((_--$. ",
"   .#--/:-----##. ",
"   .-#-{------#+  ",
"    .-<--[..#}#+  ",
"    .-|-1+  .2.   ",
"     .-3#+   .    ",
"      .-.         ",
"       .          "};
