/* XPM */
static char * a1_xpm[] = {
"19 15 39 1",
" 	c None",
".	c #000007",
"+	c #292627",
"@	c #000000",
"#	c #B1B111",
"$	c #FFFF0C",
"%	c #FDEF0A",
"&	c #D6CB00",
"*	c #FFFF00",
"=	c #FFFF01",
"-	c #FFFF06",
";	c #FFFF05",
">	c #EEE50D",
",	c #FFD40B",
"'	c #FDAF0B",
")	c #FCB30A",
"!	c #3053AD",
"~	c #4D5445",
"{	c #FEB70A",
"]	c #FEB40B",
"^	c #FEB80C",
"/	c #FEB70C",
"(	c #40656B",
"_	c #FEB70B",
":	c #FEB60C",
"<	c #FEB50B",
"[	c #FEB60B",
"}	c #FFE403",
"|	c #FFBD0C",
"1	c #E0A503",
"2	c #DBA600",
"3	c #FFD20D",
"4	c #FFDC0B",
"5	c #FFE20A",
"6	c #CDA000",
"7	c #FFD800",
"8	c #FFC20B",
"9	c #FFF500",
"0	c #FFFF02",
"       ....+       ",
"    ..@#$$##+      ",
"   .%@&*=-;$.      ",
"  .%#>$$,,,$$.     ",
"  +#,$,,')),$$.    ",
" !~#$,{)]{{),$$.   ",
" !!$$,,)^///),$.   ",
"  ($$,,_::::<,,%.  ",
"   .$,,_[,,,,,,$.  ",
"   .$},^,,,,|,1+   ",
"    .23,,4..#56@   ",
"    .+7,8+  .9.    ",
"     .#0#+   .     ",
"      .#.          ",
"       .           "};
