/* XPM */
static char * a2_xpm[] = {
"18 15 44 1",
" 	c None",
".	c #000000",
"+	c #EEE50D",
"@	c #FFFF0C",
"#	c #FFD40B",
"$	c #FFFF02",
"%	c #FFF70C",
"&	c #FFFF00",
"*	c #FDCE0D",
"=	c #FFD30F",
"-	c #FEB30C",
";	c #FEB40B",
">	c #FFC90A",
",	c #3053AD",
"'	c #FFFD08",
")	c #FFB80C",
"!	c #FFB700",
"~	c #40656B",
"{	c #FEB70C",
"]	c #FFB70C",
"^	c #FFC000",
"/	c #FFC80F",
"(	c #FEB60B",
"_	c #FFB50C",
":	c #FFD705",
"<	c #FDBB0C",
"[	c #FEAD0B",
"}	c #FEB70B",
"|	c #FFB60B",
"1	c #FFB50B",
"2	c #FFC80A",
"3	c #FFC60B",
"4	c #FEB00C",
"5	c #FEB30B",
"6	c #FBB30D",
"7	c #FFD906",
"8	c #FFB60C",
"9	c #FFCF0C",
"0	c #FFDE08",
"a	c #FFC800",
"b	c #FFDC09",
"c	c #FFC909",
"d	c #FFC70C",
"e	c #EEB200",
"        .....     ",
"   .....+@@@+.    ",
"  .@.#.@$%@@@&.   ",
" .#@@.@@@@@#*=@.  ",
".#&@@@@@@@#-;;>@. ",
",,@'@@@@@#;;;;)!. ",
"~,+#@@@@#;;;;{]@. ",
"  .^/@@#;;;(;{_@. ",
"  .+:<#[;;};|12@. ",
"   .+34;;5)##6@.  ",
"    .78590a++b+.  ",
"    .+cd+...++.   ",
"     .&e.   ..    ",
"     .+.          ",
"      .           "};
