/* XPM */
static char * a3_xpm[] = {
"18 15 28 1",
" 	c None",
".	c #000000",
"+	c #EEE50D",
"@	c #FFFF0C",
"#	c #FFD40B",
"$	c #FFFF00",
"%	c #FFFB00",
"&	c #FDDF00",
"*	c #3053AD",
"=	c #FFFF0E",
"-	c #FDDF0D",
";	c #40656B",
">	c #FFE200",
",	c #FFFF06",
"'	c #FEB40B",
")	c #FFD50E",
"!	c #FDD30C",
"~	c #FDBB0C",
"{	c #FFB70C",
"]	c #FFD900",
"^	c #FFBF0C",
"/	c #FFB80C",
"(	c #FFBD0C",
"_	c #FFCE0B",
":	c #FFD20E",
"<	c #000007",
"[	c #F6B209",
"}	c #FFC801",
"                  ",
"   ......         ",
"  .+.@@@+.....    ",
" .@+.#$#.+$%&+.   ",
".@@@+...@@##@@+.  ",
".*@@=++@@-####@@. ",
"**;@@@@@#######>. ",
" ;#,@@@######''). ",
"  .#@@###!'~''{]. ",
"   .#''''''''^@.  ",
"    .#''{/(_:#.<  ",
"    .#[#}...@.    ",
"     .@#.   ..    ",
"     .+.          ",
"      .           "};
