/* XPM */
static char * a4_xpm[] = {
"18 15 9 1",
" 	c None",
".	c #000000",
"+	c #EEE50D",
"@	c #FFFE0D",
"#	c #FFFF0C",
"$	c #3053AD",
"%	c #40656B",
"&	c #FFD40B",
"*	c #FEB40B",
"                  ",
"     ...          ",
"   ..+....        ",
"   .@#.+++....    ",
"  .@+.@#@@.+@@.   ",
"  $@@+.@#.+@@@@.  ",
"  $%@@+..@@@@&@@. ",
"   .&@@@@@@&&&&@@.",
"    .@@@@@&&&&&*@.",
"    .&@&&&&&&&***.",
"   .&&**&&&******.",
"   .&&*********&. ",
"    .&&*******&.  ",
"     .&&&&&&&&.   ",
"      ........    "};
