/* XPM */
static char * a5_xpm[] = {
"18 15 28 1",
" 	c None",
".	c #000000",
"+	c #FFFF0C",
"@	c #EEE50D",
"#	c #FFFF07",
"$	c #FFFA0C",
"%	c #FFFF0E",
"&	c #FFFF0F",
"*	c #FFFF05",
"=	c #FFEB00",
"-	c #3053AD",
";	c #40656B",
">	c #FFD40B",
",	c #FFFF00",
"'	c #FFFF0D",
")	c #FFF40D",
"!	c #FFF900",
"~	c #FFF20E",
"{	c #FFF80D",
"]	c #FFF10D",
"^	c #FEB40B",
"/	c #FFF209",
"(	c #FFB40C",
"_	c #FDBD0C",
":	c #FFCF0C",
"<	c #FFB20C",
"[	c #FFDE0B",
"}	c #FFBC08",
"                  ",
"    ....          ",
"   .++@......     ",
"  .+#+.+@@.@@.    ",
"  .+$.+%&@.+*=.   ",
" --;+@.++.++>+,.  ",
"  ->++@..')>>>+@. ",
"   .!~{']>>>>>^>. ",
"  .>/>>>>>>>^^(>. ",
"  .>^_^>>^^^^^>.  ",
"  .>:^^^^^^<>>>.  ",
"   .>[>^^^^>>>.   ",
"    ..>}>>>....   ",
"      .>...       ",
"       .          "};
