/* XPM */
static char * a6_xpm[] = {
"19 15 85 1",
" 	c None",
".	c #000000",
"+	c #292627",
"@	c #A99F0E",
"#	c #987E00",
"$	c #E3D700",
"%	c #F0E302",
"&	c #51460C",
"*	c #C0B507",
"=	c #FAE602",
"-	c #FFF500",
";	c #FFFB00",
">	c #FFFF00",
",	c #FFF200",
"'	c #7C771E",
")	c #DDD608",
"!	c #7B740F",
"~	c #DED90D",
"{	c #FFFF0E",
"]	c #FFF70E",
"^	c #FFEB0E",
"/	c #FDED0E",
"(	c #FCE60F",
"_	c #FDC80D",
":	c #FFC70F",
"<	c #FFCA00",
"[	c #3053AD",
"}	c #4B4720",
"|	c #D1CC07",
"1	c #FFFF0D",
"2	c #FDD00C",
"3	c #FDD10D",
"4	c #FDD50D",
"5	c #FDD10C",
"6	c #FEB80D",
"7	c #FEAB0C",
"8	c #FEAC0B",
"9	c #FFD102",
"0	c #8A7600",
"a	c #FFE60C",
"b	c #FFB50A",
"c	c #FEAE0C",
"d	c #FEAF0B",
"e	c #FEAD0B",
"f	c #FEB20B",
"g	c #FEB80B",
"h	c #FEB60C",
"i	c #FFCF09",
"j	c #FFC000",
"k	c #FFB30B",
"l	c #FEB70B",
"m	c #FEB60B",
"n	c #FEB40C",
"o	c #FFCB0B",
"p	c #D09D04",
"q	c #79791F",
"r	c #EBA500",
"s	c #FFC40B",
"t	c #FEB50B",
"u	c #DAA609",
"v	c #FFFF0C",
"w	c #FFD606",
"x	c #FEB30D",
"y	c #FDB70C",
"z	c #FEB70C",
"A	c #FDB30C",
"B	c #FFC10E",
"C	c #FFBA0C",
"D	c #FFD907",
"E	c #FFB80D",
"F	c #FEB30B",
"G	c #FFC30C",
"H	c #FFDB07",
"I	c #F2B300",
"J	c #FDB703",
"K	c #FFDC09",
"L	c #BF970A",
"M	c #FEAC0C",
"N	c #FFC50B",
"O	c #F3B300",
"P	c #FFEC00",
"Q	c #EAB700",
"R	c #FFF606",
"S	c #EAB100",
"T	c #A59000",
"                   ",
"    ..+            ",
"   .@#.......      ",
"  .$%&*=-;>>,.     ",
"  ')!~{]^/(_:<.    ",
" [[}|123456789.    ",
"  [0abccdefghi.+   ",
"   .jklmhllmnop.   ",
"  +qrsmmmmlmtou.   ",
"   .vwxyzhABCo.+   ",
"   +.DEmFGHIJK.    ",
"    .LHMNO...P.    ",
"     .QRS.   .     ",
"      .T.          ",
"       .           "};
