/* XPM */
static char * a6_xpm[] = {
"18 15 35 1",
" 	c None",
".	c #000000",
"+	c #FFFF0C",
"@	c #E3D700",
"#	c #EEE50D",
"$	c #FFFB00",
"%	c #FFFF00",
"&	c #DDD608",
"*	c #FFFF0E",
"=	c #FFF70E",
"-	c #3053AD",
";	c #FFFF0D",
">	c #FDD50D",
",	c #FDD10C",
"'	c #FFD40B",
")	c #FEAD0B",
"!	c #FEB20B",
"~	c #FEB80B",
"{	c #FEB60B",
"]	c #FEB40B",
"^	c #FEB70B",
"/	c #FFD606",
"(	c #FEB30D",
"_	c #FDB70C",
":	c #FEB70C",
"<	c #FEB60C",
"[	c #FDB30C",
"}	c #FFBA0C",
"|	c #FFD907",
"1	c #FFB80D",
"2	c #FEB30B",
"3	c #FFC30C",
"4	c #FEAC0C",
"5	c #FFC50B",
"6	c #FFEC00",
"                  ",
"    .....         ",
"   .+.........    ",
"  .@+#.++$%%+#.   ",
"  .&++*=++++++#.  ",
" --#+;++>,''''+.  ",
"  -#;++'')!~{{'#. ",
"   .;+'']^^{]{{+. ",
"   .;''{{{^{]{{+. ",
"   .;/(_:<[]}{{+. ",
"   .'|1{23+']{+.  ",
"    .''45+...6.   ",
"     .''+.   .    ",
"      .'.         ",
"       .          "};
