/* XPM */
static char * a2_xpm[] = {
"19 15 113 2",
"  	c None",
". 	c #000000",
"+ 	c #919013",
"@ 	c #DBC200",
"# 	c #FEE500",
"$ 	c #F4D700",
"% 	c #B1A000",
"& 	c #917E00",
"* 	c #9A6A00",
"= 	c #B19600",
"- 	c #E7D800",
"; 	c #FFFF02",
"> 	c #FFF70C",
", 	c #FFE80E",
"' 	c #FFF30D",
") 	c #FFFF09",
"! 	c #FFFF00",
"~ 	c #FFF200",
"{ 	c #F3E90A",
"] 	c #81610D",
"^ 	c #F4F50D",
"/ 	c #FFF90D",
"( 	c #FDDC0E",
"_ 	c #FDE00D",
": 	c #FDEC0D",
"< 	c #FDE30D",
"[ 	c #FDCE0D",
"} 	c #FFD30F",
"| 	c #ABA200",
"1 	c #FFE812",
"2 	c #F3EC0C",
"3 	c #FFEF0D",
"4 	c #FFEA0D",
"5 	c #FDDD0D",
"6 	c #FDE40D",
"7 	c #FDEE0E",
"8 	c #FDD50D",
"9 	c #FEB30C",
"0 	c #FEAC0B",
"a 	c #FEA80B",
"b 	c #FFC90A",
"c 	c #E2AC00",
"d 	c #3053AD",
"e 	c #A8A011",
"f 	c #FFFD08",
"g 	c #FFE60E",
"h 	c #FFE40D",
"i 	c #FDDF0D",
"j 	c #FDE60D",
"k 	c #FDEF0D",
"l 	c #FBCC0D",
"m 	c #FDA90D",
"n 	c #FEB00B",
"o 	c #FEB70B",
"p 	c #FEB80B",
"q 	c #FFB80C",
"r 	c #FFB700",
"s 	c #D1B200",
"t 	c #FFE408",
"u 	c #FDCB0E",
"v 	c #FDEA0E",
"w 	c #FDE90D",
"x 	c #FDED0E",
"y 	c #FDC50C",
"z 	c #FDAA0B",
"A 	c #FEB60C",
"B 	c #FEB70C",
"C 	c #FFB70C",
"D 	c #FFCC02",
"E 	c #FFC000",
"F 	c #FFC80F",
"G 	c #FCF20F",
"H 	c #FDBE0C",
"I 	c #FEAA0B",
"J 	c #FEB60B",
"K 	c #FFB50C",
"L 	c #FFDB09",
"M 	c #A17C0A",
"N 	c #FFD705",
"O 	c #FDBB0C",
"P 	c #FEAD0B",
"Q 	c #FEB80C",
"R 	c #FEB40B",
"S 	c #FFB60B",
"T 	c #FFB50B",
"U 	c #FFC80A",
"V 	c #EAB201",
"W 	c #DFA700",
"X 	c #FFC60B",
"Y 	c #FEB00C",
"Z 	c #FEB90C",
"` 	c #FEB50C",
" .	c #FEB30B",
"..	c #FFCE0D",
"+.	c #FFC70C",
"@.	c #FBB30D",
"#.	c #FFD300",
"$.	c #FFD906",
"%.	c #FFB60C",
"&.	c #FFCF0C",
"*.	c #FFDE08",
"=.	c #FFC800",
"-.	c #C89A00",
";.	c #9E770F",
">.	c #FFDC09",
",.	c #BD8E00",
"'.	c #CB9902",
").	c #FFC909",
"!.	c #BE8E00",
"~.	c #CAA500",
"{.	c #BA8F00",
"].	c #EEB200",
"^.	c #A68F00",
"                  . . . . .           ",
"        . . . . . + @ # $ % .         ",
"      . & * = . - ; > , ' ) ! .       ",
"    . ~ { ] . ^ / ( _ : < [ } ! .     ",
"  . | ! 1 2 3 4 5 6 7 8 9 0 a b c .   ",
"  d d e f g h i j k l m n o p q r .   ",
"    d s t u v w x y z A p B B C D .   ",
"      . E F G j H I J o J A B K L .   ",
"      . M N O B P Q o o R S T U V .   ",
"        . W X Y Z `  .q ..+.@.#..     ",
"          . $.%. .&.*.=.-.;.>.,..     ",
"          . '.).+.!.. . . ~.{..       ",
"            . ! ]..       . .         ",
"            . ^..                     ",
"              .                       "};
