/* XPM */
static char * a3_xpm[] = {
"19 15 100 2",
"  	c None",
". 	c #000000",
"+ 	c #292627",
"@ 	c #3B3E2D",
"# 	c #FFF100",
"$ 	c #CCBF00",
"% 	c #F1E605",
"& 	c #FFFF00",
"* 	c #CFB800",
"= 	c #E9E200",
"- 	c #FFFB00",
"; 	c #FDDF00",
"> 	c #AA9500",
", 	c #959303",
"' 	c #FFFF01",
") 	c #F8EA14",
"! 	c #B1B111",
"~ 	c #F2EF0E",
"{ 	c #FFF70D",
"] 	c #FFDD0E",
"^ 	c #FFE20F",
"/ 	c #FFEF0F",
"( 	c #FFFF06",
"_ 	c #F2D900",
": 	c #3053AD",
"< 	c #FFFF0C",
"[ 	c #FFED00",
"} 	c #FFFF0E",
"| 	c #DBC80B",
"1 	c #D2C20C",
"2 	c #FFFE0D",
"3 	c #FFE80C",
"4 	c #FDDF0D",
"5 	c #FDE20D",
"6 	c #FDE00D",
"7 	c #FDDD0E",
"8 	c #FFFF0B",
"9 	c #61794A",
"0 	c #FFF300",
"a 	c #FFE50E",
"b 	c #FFF10E",
"c 	c #FFF00E",
"d 	c #FEDF0D",
"e 	c #FDE10D",
"f 	c #FDE40D",
"g 	c #FDEA0D",
"h 	c #FDED0D",
"i 	c #FFD80E",
"j 	c #FFE200",
"k 	c #022A58",
"l 	c #8B7707",
"m 	c #FEE30F",
"n 	c #FDE50F",
"o 	c #FDE40E",
"p 	c #FDE70D",
"q 	c #FDE90D",
"r 	c #FDEC0D",
"s 	c #FDE60E",
"t 	c #FDD90D",
"u 	c #FDC40C",
"v 	c #FEAB0C",
"w 	c #FFD50E",
"x 	c #CB9700",
"y 	c #FFE80B",
"z 	c #FCE60F",
"A 	c #FDE30E",
"B 	c #FDDE0D",
"C 	c #FDDB0D",
"D 	c #FDD30C",
"E 	c #FDC80C",
"F 	c #FDBB0C",
"G 	c #FDAE0B",
"H 	c #FDAC0B",
"I 	c #FFB70C",
"J 	c #FFD900",
"K 	c #FFCA00",
"L 	c #FFC30C",
"M 	c #FDB80C",
"N 	c #FDB50D",
"O 	c #FDB10B",
"P 	c #FDAD0C",
"Q 	c #FDB00C",
"R 	c #FEB30C",
"S 	c #FFBF0C",
"T 	c #FFEE02",
"U 	c #FFD608",
"V 	c #FFB80C",
"W 	c #FFBC0B",
"X 	c #FFBD0C",
"Y 	c #FFCE0B",
"Z 	c #FFD20E",
"` 	c #FFC80A",
" .	c #000007",
"..	c #CBA105",
"+.	c #F6B209",
"@.	c #E1A80C",
"#.	c #FFC801",
"$.	c #C28E00",
"%.	c #B27C00",
"&.	c #80651A",
"                                      ",
"      . . + . . . @ . . . . .         ",
"    . # $ . % & * . = & - ; > .       ",
"  . , ' ) ! . . . ~ { ] ^ / ( _ .     ",
"  . : < [ } | 1 2 3 4 5 5 6 7 8 $ .   ",
"  : : 9 0 a b c d e 5 5 f g h i j .   ",
"    k l ( m n o p q g r s t u v w .   ",
"      . x y z A B C D E F G H I J .   ",
"        . K L M N O G P Q R S T .     ",
"          . U V W I V X Y Z ` .  .    ",
"          . ..+.@.#.. . . $..         ",
"            . [ %..       .           ",
"              + &..                   ",
"                .                     ",
"                                      "};
