/* XPM */
static char * a4_xpm[] = {
"19 15 108 2",
"  	c None",
". 	c #000000",
"+ 	c #292627",
"@ 	c #7C8230",
"# 	c #C8B500",
"$ 	c #C4AB00",
"% 	c #B6A400",
"& 	c #D7C400",
"* 	c #F6DE00",
"= 	c #A19B0A",
"- 	c #FDD900",
"; 	c #FFFF0B",
"> 	c #89740F",
", 	c #FFFF0F",
"' 	c #FFFF0C",
") 	c #DAD006",
"! 	c #E7D500",
"~ 	c #F4E500",
"{ 	c #8E8A11",
"] 	c #3053AD",
"^ 	c #A0982A",
"/ 	c #F0DF0D",
"( 	c #E6E60C",
"_ 	c #94780D",
": 	c #D0C80E",
"< 	c #FFF00E",
"[ 	c #FFEC0E",
"} 	c #FFFF00",
"| 	c #D8D200",
"1 	c #EBD402",
"2 	c #E1D70D",
"3 	c #CDBF0D",
"4 	c #FFFF0E",
"5 	c #FFF50E",
"6 	c #FFDF0D",
"7 	c #FEE10D",
"8 	c #FFDE0E",
"9 	c #FFFF09",
"0 	c #DFD301",
"a 	c #D4C713",
"b 	c #FFE50E",
"c 	c #FFFF0D",
"d 	c #FFEF0D",
"e 	c #FEE20D",
"f 	c #FFDF0E",
"g 	c #FFFF08",
"h 	c #90830C",
"i 	c #9D9807",
"j 	c #F9F80E",
"k 	c #FFE00D",
"l 	c #FEE40D",
"m 	c #FEF00D",
"n 	c #FFE50C",
"o 	c #D69A03",
"p 	c #E2A100",
"q 	c #FFF40E",
"r 	c #FEEC0E",
"s 	c #FEEA0D",
"t 	c #FEE80D",
"u 	c #FEE70D",
"v 	c #FEE90D",
"w 	c #FEED0D",
"x 	c #FEEC0D",
"y 	c #FDCC0D",
"z 	c #FFC009",
"A 	c #CC9200",
"B 	c #493F0C",
"C 	c #FFD10C",
"D 	c #FFB20B",
"E 	c #FDC90C",
"F 	c #FED60D",
"G 	c #FEDD0D",
"H 	c #FEDE0D",
"I 	c #FEDA0C",
"J 	c #FDD20C",
"K 	c #FDBC0B",
"L 	c #FEA60C",
"M 	c #FFDE05",
"N 	c #A08408",
"O 	c #5D541C",
"P 	c #FFD806",
"Q 	c #FFB00B",
"R 	c #FEAE0B",
"S 	c #FEB30C",
"T 	c #FEB30D",
"U 	c #FEAD0D",
"V 	c #FEAA0C",
"W 	c #FFB30D",
"X 	c #FFE305",
"Y 	c #C79100",
"Z 	c #DF9D00",
"` 	c #FFE40A",
" .	c #FFBF0D",
"..	c #FFBC0D",
"+.	c #FFBC0C",
"@.	c #FFBF0B",
"#.	c #FFCD09",
"$.	c #FFD504",
"%.	c #FFC700",
"&.	c #A68400",
"*.	c #AD8C00",
"=.	c #F4B000",
"-.	c #FDB600",
";.	c #FCB600",
">.	c #F5AC00",
",.	c #C69600",
"'.	c #987E09",
").	c #575433",
"          . +                         ",
"        . @ . . . .                   ",
"      . # $ % & * = . . . .           ",
"    . - ; . > , ' ) . ! ~ { .         ",
"    ] ^ / ( . _ . . : < [ } | .       ",
"    ] ] 1 ' 2 . 3 4 5 6 7 8 9 0 .     ",
"      . } a b c d 6 7 e e 7 f g h .   ",
"        . i j k 7 e e 7 7 l m n o .   ",
"        . p q r s t u v w x y z A .   ",
"      . B C D E F G H I J K L M N .   ",
"      . O P Q R R S T U V W X Y .     ",
"        . Z `  ...+.@.#.$.%.&..       ",
"          . *.=.-.;.>.,.'.)..         ",
"            . . . . . . . .           ",
"                                      "};
