/* XPM */
static char * a5_xpm[] = {
"19 15 104 2",
"  	c None",
". 	c #000000",
"+ 	c #292627",
"@ 	c #9E9406",
"# 	c #E9D800",
"$ 	c #CCBD00",
"% 	c #FFFF07",
"& 	c #AAA00D",
"* 	c #B3AA0A",
"= 	c #F3D900",
"- 	c #E5C900",
"; 	c #A48D00",
"> 	c #FFE800",
", 	c #A89600",
"' 	c #CBC311",
") 	c #FFFA0C",
"! 	c #B2A40E",
"~ 	c #FFFF0E",
"{ 	c #FFFF0F",
"] 	c #A9A10D",
"^ 	c #FFFF05",
"/ 	c #FFEB00",
"( 	c #3053AD",
"_ 	c #CCBB00",
": 	c #7E720F",
"< 	c #C1B30D",
"[ 	c #E6D90D",
"} 	c #FFEA0D",
"| 	c #FDDC0E",
"1 	c #FFF30F",
"2 	c #FFFF00",
"3 	c #776604",
"4 	c #8D860B",
"5 	c #F9F20D",
"6 	c #C3B50C",
"7 	c #CCBD0C",
"8 	c #FFFF0D",
"9 	c #FFF40D",
"0 	c #FDDD0D",
"a 	c #FDE10D",
"b 	c #FDE40D",
"c 	c #FFFF0C",
"d 	c #DCBB00",
"e 	c #FFF900",
"f 	c #FFF20E",
"g 	c #FFF80D",
"h 	c #FFF10D",
"i 	c #FEDF0D",
"j 	c #FDE00D",
"k 	c #FDE70D",
"l 	c #FDEF0E",
"m 	c #FDE60D",
"n 	c #FFC10C",
"o 	c #FFC908",
"p 	c #B49103",
"q 	c #FFF209",
"r 	c #FDE80E",
"s 	c #FDEA0D",
"t 	c #FDE90D",
"u 	c #FDEC0D",
"v 	c #FDE30D",
"w 	c #FDCE0C",
"x 	c #FDB20D",
"y 	c #FFB40C",
"z 	c #F9C602",
"A 	c #F5AC00",
"B 	c #FFB70D",
"C 	c #FDBD0C",
"D 	c #FDC90D",
"E 	c #FDD00D",
"F 	c #FDD30C",
"G 	c #FDCE0D",
"H 	c #FDC30B",
"I 	c #FDB60C",
"J 	c #FDA90B",
"K 	c #FEAF0C",
"L 	c #FFEB03",
"M 	c #E7B700",
"N 	c #FFCF0C",
"O 	c #FEAA0D",
"P 	c #FDAD0B",
"Q 	c #FEAE0B",
"R 	c #FDAE0B",
"S 	c #FEAC0C",
"T 	c #FEAC0D",
"U 	c #FFB20C",
"V 	c #FFCB0D",
"W 	c #FFDA0D",
"X 	c #B28600",
"Y 	c #FFDE05",
"Z 	c #FFDE0B",
"` 	c #FFC70B",
" .	c #FFBE0B",
"..	c #FFCA0C",
"+.	c #FFD508",
"@.	c #FFD000",
"#.	c #E5AB00",
"$.	c #AF7900",
"%.	c #E6AA05",
"&.	c #FFBC08",
"*.	c #F8AF00",
"=.	c #D59A00",
"-.	c #A78000",
";.	c #6F4200",
"        . . . +                       ",
"      . @ # + . . . . . .             ",
"    . $ % & * = - ; . > , .           ",
"    . ' ) . ! ~ { ] . ~ ^ / .         ",
"  ( ( ( _ : . < . . [ } | 1 2 .       ",
"    ( 3 4 5 6 . 7 8 9 0 a b c d .     ",
"      . e f g 8 h i j k l m n o .     ",
"    . p q r s t s u u v w x y z .     ",
"    . A B C D E F G H I J K L .       ",
"    . M N O P Q R S T U V W X .       ",
"      . Y Z `  .n ..+.@.#.$..         ",
"        . . %.&.*.=.-.. . . +         ",
"            . ;.. . .                 ",
"              .                       ",
"                                      "};
