/* XPM */
static char * n0_9_xpm[] = {
"25 308 3 1",
" 	c None",
".	c #000000",
"+	c #FFFFFF",
"   ...............       ",
"   ...............       ",
"   ...............       ",
".....++++++++++.....     ",
".....++++++++++.....     ",
"...+++++++++++++++.....  ",
"...+++++++++++++++.....  ",
"...+++++++++++++++.....  ",
"...+++++.....+++++.....  ",
"...+++++.....+++++.....  ",
"...+++++.....+++++.....  ",
"...+++++.....+++++.....  ",
"...+++++.....+++++.....  ",
"...+++++.....+++++.....  ",
"...+++++.....+++++.....  ",
"...+++++.....+++++.....  ",
"...+++++.....+++++.....  ",
"...+++++.....+++++.....  ",
"...+++++++++++++++.....  ",
"...+++++++++++++++.....  ",
".....++++++++++........  ",
".....++++++++++........  ",
".....++++++++++........  ",
"   ....................  ",
"   ....................  ",
"     ...............     ",
"     ...............     ",
"     ...............     ",
"   ...............       ",
"   ...............       ",
"   ...............       ",
".....++++++++++.....     ",
".....++++++++++.....     ",
"...+++++++++++++++.....  ",
"...+++++++++++++++.....  ",
"...+++++++++++++++.....  ",
"...+++++.....+++++.....  ",
"...+++++.....+++++.....  ",
"...+++++++++++++++.....  ",
"...+++++++++++++++.....  ",
"...+++++++++++++++.....  ",
".....+++++++++++++.....  ",
".....+++++++++++++.....  ",
"   ..........+++++.....  ",
"   ..........+++++.....  ",
"   ..........+++++.....  ",
"     ........+++++.....  ",
"     ........+++++.....  ",
"          ...+++++.....  ",
"          ...+++++.....  ",
"          ...+++++.....  ",
"          .............  ",
"          .............  ",
"             ..........  ",
"             ..........  ",
"             ..........  ",
"   ...............       ",
"   ...............       ",
"   ...............       ",
".....++++++++++.....     ",
".....++++++++++.....     ",
"...+++++++++++++++.....  ",
"...+++++++++++++++.....  ",
"...+++++++++++++++.....  ",
"...+++++.....+++++.....  ",
"...+++++.....+++++.....  ",
".....++++++++++........  ",
".....++++++++++........  ",
".....++++++++++........  ",
"...+++++++++++++++.....  ",
"...+++++++++++++++.....  ",
"...+++++.....+++++.....  ",
"...+++++.....+++++.....  ",
"...+++++.....+++++.....  ",
"...+++++++++++++++.....  ",
"...+++++++++++++++.....  ",
".....++++++++++........  ",
".....++++++++++........  ",
".....++++++++++........  ",
"   ....................  ",
"   ....................  ",
"     ...............     ",
"     ...............     ",
"     ...............     ",
"....................     ",
"....................     ",
"....................     ",
"...+++++++++++++++.....  ",
"...+++++++++++++++.....  ",
"...+++++++++++++++.....  ",
"...+++++++++++++++.....  ",
"...+++++++++++++++.....  ",
".............+++++.....  ",
".............+++++.....  ",
"   .....++++++++++.....  ",
"   .....++++++++++.....  ",
"   .....++++++++++.....  ",
"     ...++++++++++.....  ",
"     ...++++++++++.....  ",
"     ........+++++.....  ",
"     ........+++++.....  ",
"     ........+++++.....  ",
"        .....+++++.....  ",
"        .....+++++.....  ",
"          ...+++++.....  ",
"          ...+++++.....  ",
"          ...+++++.....  ",
"          .............  ",
"          .............  ",
"               ........  ",
"               ........  ",
"               ........  ",
"..........               ",
"..........               ",
"..........               ",
"...+++++.....            ",
"...+++++.....            ",
"...+++++.....            ",
"...+++++.....            ",
"...+++++.....            ",
"...+++++..........       ",
"...+++++..........       ",
"...++++++++++++.....     ",
"...++++++++++++.....     ",
"...++++++++++++.....     ",
"...+++++++++++++++.....  ",
"...+++++++++++++++.....  ",
"...+++++.....+++++.....  ",
"...+++++.....+++++.....  ",
"...+++++.....+++++.....  ",
"...+++++++++++++++.....  ",
"...+++++++++++++++.....  ",
".....+++++++++++++.....  ",
".....+++++++++++++.....  ",
".....+++++++++++++.....  ",
"   ....................  ",
"   ....................  ",
"     ...............     ",
"     ...............     ",
"     ...............     ",
"....................     ",
"....................     ",
"....................     ",
"...+++++++++++++++.....  ",
"...+++++++++++++++.....  ",
"...+++++++++++++++.....  ",
"...+++++++++++++++.....  ",
"...+++++++++++++++.....  ",
"...+++++...............  ",
"...+++++...............  ",
"...++++++++++++........  ",
"...++++++++++++........  ",
"...++++++++++++........  ",
"...+++++++++++++++.....  ",
"...+++++++++++++++.....  ",
".............+++++.....  ",
".............+++++.....  ",
".............+++++.....  ",
"...+++++++++++++++.....  ",
"...+++++++++++++++.....  ",
"...++++++++++++........  ",
"...++++++++++++........  ",
"...++++++++++++........  ",
".......................  ",
".......................  ",
"   .................     ",
"   .................     ",
"   .................     ",
"..................       ",
"..................       ",
"..................       ",
"...+++++..+++++...       ",
"...+++++..+++++...       ",
"...+++++..+++++...       ",
"...+++++..+++++...       ",
"...+++++..+++++...       ",
"...+++++..+++++.....     ",
"...+++++..+++++.....     ",
"...+++++++++++++++.....  ",
"...+++++++++++++++.....  ",
"...+++++++++++++++.....  ",
"...+++++++++++++++.....  ",
"...+++++++++++++++.....  ",
"..........+++++........  ",
"..........+++++........  ",
"..........+++++........  ",
"   .......+++++........  ",
"   .......+++++........  ",
"     .....+++++...       ",
"     .....+++++...       ",
"     .....+++++...       ",
"     .............       ",
"     .............       ",
"        ..........       ",
"        ..........       ",
"        ..........       ",
"..................       ",
"..................       ",
"..................       ",
"...++++++++++++.....     ",
"...++++++++++++.....     ",
"...+++++++++++++++.....  ",
"...+++++++++++++++.....  ",
"...+++++++++++++++.....  ",
".............+++++.....  ",
".............+++++.....  ",
"   .....++++++++++.....  ",
"   .....++++++++++.....  ",
"   .....++++++++++.....  ",
"     ...+++++++........  ",
"     ...+++++++........  ",
".............+++++.....  ",
".............+++++.....  ",
".............+++++.....  ",
"...+++++++++++++++.....  ",
"...+++++++++++++++.....  ",
"...++++++++++++........  ",
"...++++++++++++........  ",
"...++++++++++++........  ",
".......................  ",
".......................  ",
"   .................     ",
"   .................     ",
"   .................     ",
"   ...............       ",
"   ...............       ",
"   ...............       ",
".....++++++++++.....     ",
".....++++++++++.....     ",
"...+++++++++++++++.....  ",
"...+++++++++++++++.....  ",
"...+++++++++++++++.....  ",
"...+++++.....+++++.....  ",
"...+++++.....+++++.....  ",
"...+++++..++++++++.....  ",
"...+++++..++++++++.....  ",
"...+++++..++++++++.....  ",
"........+++++++........  ",
"........+++++++........  ",
".....++++++++..........  ",
".....++++++++..........  ",
".....++++++++..........  ",
"...+++++++++++++++.....  ",
"...+++++++++++++++.....  ",
"...+++++++++++++++.....  ",
"...+++++++++++++++.....  ",
"...+++++++++++++++.....  ",
".......................  ",
".......................  ",
"   ....................  ",
"   ....................  ",
"   ....................  ",
"     ............        ",
"     ............        ",
"     ............        ",
"  .....++++++++.....     ",
"  .....++++++++.....     ",
"  ...++++++++++.....     ",
"  ...++++++++++.....     ",
"  ...++++++++++.....     ",
"  ...++++++++++.....     ",
"  ...++++++++++.....     ",
"  .....++++++++.....     ",
"  .....++++++++.....     ",
"  .....++++++++.....     ",
"     ..++++++++.....     ",
"     ..++++++++.....     ",
".......++++++++.......   ",
".......++++++++.......   ",
".......++++++++.......   ",
"..+++++++++++++++.....   ",
"..+++++++++++++++.....   ",
"..+++++++++++++++.....   ",
"..+++++++++++++++.....   ",
"..+++++++++++++++.....   ",
"......................   ",
"......................   ",
"  ....................   ",
"  ....................   ",
"  ....................   ",
"   ...............       ",
"   ...............       ",
"   ...............       ",
".....++++++++++.....     ",
".....++++++++++.....     ",
"...+++++++++++++++.....  ",
"...+++++++++++++++.....  ",
"...+++++++++++++++.....  ",
"...+++++.....+++++.....  ",
"...+++++.....+++++.....  ",
"...+++++.....+++++.....  ",
"...+++++.....+++++.....  ",
"...+++++.....+++++.....  ",
"...+++++.....+++++.....  ",
"...+++++.....+++++.....  ",
"...+++++.....+++++.....  ",
"...+++++.....+++++.....  ",
"...+++++.....+++++.....  ",
"...+++++++++++++++.....  ",
"...+++++++++++++++.....  ",
".....++++++++++........  ",
".....++++++++++........  ",
".....++++++++++........  ",
"   ....................  ",
"   ....................  ",
"     ...............     ",
"     ...............     ",
"     ...............     "};
