/* XPM */
static char * n3_xpm[] = {
"25 28 3 1",
" 	c None",
".	c #000000",
"+	c #FFFFFF",
"..................       ",
"..................       ",
"..................       ",
"...++++++++++++.....     ",
"...++++++++++++.....     ",
"...+++++++++++++++.....  ",
"...+++++++++++++++.....  ",
"...+++++++++++++++.....  ",
".............+++++.....  ",
".............+++++.....  ",
"   .....++++++++++.....  ",
"   .....++++++++++.....  ",
"   .....++++++++++.....  ",
"     ...+++++++........  ",
"     ...+++++++........  ",
".............+++++.....  ",
".............+++++.....  ",
".............+++++.....  ",
"...+++++++++++++++.....  ",
"...+++++++++++++++.....  ",
"...++++++++++++........  ",
"...++++++++++++........  ",
"...++++++++++++........  ",
".......................  ",
".......................  ",
"   .................     ",
"   .................     ",
"   .................     "};
